<svg width="318" height="50" viewBox="0 0 318 50" fill="none" xmlns="http://www.w3.org/2000/svg">
<path d="M82.1379 33.0692V28.8278H92.2069C93.7471 28.8278 94.9425 28.391 95.7931 27.5174C96.6666 26.6439 97.1034 25.4944 97.1034 24.0692C97.1034 22.6209 96.6666 21.4714 95.7931 20.6209C94.9425 19.7703 93.7471 19.345 92.2069 19.345H78.931V40.0347H74.5862V14.9657H92.2069C93.6552 14.9657 94.9425 15.1841 96.0689 15.6209C97.2184 16.0347 98.1839 16.6324 98.9655 17.414C99.7471 18.1726 100.345 19.1036 100.759 20.2071C101.172 21.3105 101.379 22.5519 101.379 23.9312C101.379 25.2875 101.172 26.5289 100.759 27.6554C100.345 28.7588 99.7471 29.7128 98.9655 30.5174C98.1839 31.322 97.2184 31.9542 96.0689 32.414C94.9425 32.8508 93.6552 33.0692 92.2069 33.0692H82.1379ZM104.489 40.0347V14.9657H108.869V35.6554H125.731V40.0347H104.489ZM155.008 40.0347L151.249 33.7243H139.387L141.456 30.1726H149.145L143.559 20.7933L132.18 40.0347H127.18L141.594 16.0347C141.847 15.5979 142.145 15.2531 142.49 15.0002C142.835 14.7473 143.249 14.6209 143.732 14.6209C144.214 14.6209 144.617 14.7473 144.939 15.0002C145.283 15.2531 145.582 15.5979 145.835 16.0347L160.283 40.0347H155.008ZM167.051 21.6898V40.0347H162.878V17.276C162.878 16.4714 163.074 15.8393 163.465 15.3795C163.878 14.8967 164.43 14.6554 165.12 14.6554C165.442 14.6554 165.752 14.7243 166.051 14.8623C166.35 15.0002 166.66 15.2301 166.982 15.5519L184.672 33.1036V14.7588H188.844V37.7243C188.844 38.5519 188.637 39.1956 188.223 39.6554C187.833 40.1151 187.315 40.345 186.672 40.345C185.959 40.345 185.292 40.0347 184.672 39.414L167.051 21.6898ZM193.087 40.0347V14.9657H215.466V19.345H197.432V35.6554H215.501V40.0347H193.087ZM200.639 29.1381V25.4485H214.535V29.1381H200.639ZM227.287 40.0347V19.345H217.769V14.9657H241.183V19.345H231.666V40.0347H227.287ZM267.346 40.0347L261.001 33.0692H251.622V29.2071H262.07C263.656 29.2071 264.852 28.7818 265.656 27.9312C266.461 27.0577 266.863 25.8048 266.863 24.1726C266.863 22.5404 266.438 21.3335 265.588 20.5519C264.76 19.7473 263.588 19.345 262.07 19.345H248.415V40.0347H244.07V14.9657H262.07C263.496 14.9657 264.771 15.1841 265.898 15.6209C267.024 16.0347 267.978 16.6439 268.76 17.4485C269.542 18.2301 270.139 19.1841 270.553 20.3105C270.967 21.437 271.174 22.7013 271.174 24.1036C271.174 26.1956 270.714 27.9542 269.794 29.3795C268.898 30.7818 267.634 31.7933 266.001 32.414L273.553 40.0347H267.346ZM276.067 40.0347V14.9657H280.446V40.0347H276.067ZM310.225 40.0347L299.708 29.7933L289.294 40.0347H283.605L297.053 27.0002L284.57 14.9657H290.605L300.156 24.2416L309.57 14.9657H315.26L302.777 27.0002L316.363 40.0347H310.225Z" fill="url(#paint0_linear_19_1151)"/>
<circle cx="23.7069" cy="26.2928" r="21.9828" stroke="url(#paint1_linear_19_1151)" stroke-width="3.44828"/>
<circle cx="38.7931" cy="11.2069" r="11.2069" fill="#D9D9D9"/>
<defs>
<linearGradient id="paint0_linear_19_1151" x1="72.4138" y1="26.5347" x2="311.826" y2="26.5347" gradientUnits="userSpaceOnUse">
<stop stop-color="#323848"/>
<stop offset="0.504808" stop-color="white"/>
<stop offset="1" stop-color="#323848"/>
</linearGradient>
<linearGradient id="paint1_linear_19_1151" x1="23.7069" y1="2.58594" x2="23.7069" y2="49.9997" gradientUnits="userSpaceOnUse">
<stop stop-color="white"/>
<stop offset="0.978792" stop-color="#10172B"/>
</linearGradient>
</defs>
</svg>
